<?xml version="1.0" standalone="no"?>
<!DOCTYPE svg PUBLIC "-//W3C//DTD SVG 20010904//EN"
 "http://www.w3.org/TR/2001/REC-SVG-20010904/DTD/svg10.dtd">
<svg version="1.0" xmlns="http://www.w3.org/2000/svg"
 width="618.000000pt" height="363.000000pt" viewBox="0 0 618.000000 363.000000"
 preserveAspectRatio="xMidYMid meet">

<circle cx="309" cy="181.5" r="300" fill="#ffffff" /> <!-- White background circle -->

<g transform="translate(0.000000,363.000000) scale(0.100000,-0.100000)"
fill="#000000" stroke="none">
<path d="M3321 3118 c-5 -18 -53 -188 -106 -378 -53 -190 -157 -561 -231 -825
-257 -915 -413 -1471 -419 -1498 l-7 -28 132 3 133 3 303 1085 c167 597 340
1213 384 1370 44 157 80 288 80 293 0 4 -58 7 -129 7 l-129 0 -11 -32z"/>
<path d="M1655 2444 c-385 -162 -832 -349 -993 -416 l-293 -122 3 -129 3 -129
185 -78 c102 -43 502 -212 890 -375 388 -164 751 -317 808 -340 l102 -43 0
157 0 156 -67 27 c-38 14 -327 133 -643 263 -316 130 -644 264 -727 298 -84
34 -153 64 -153 67 0 3 355 149 788 324 433 176 790 322 795 326 4 4 6 74 5
157 l-3 150 -700 -293z"/>
<path d="M3910 2585 c0 -85 1 -155 3 -155 1 0 36 -14 77 -31 97 -40 738 -301
1135 -463 400 -163 384 -155 362 -167 -9 -6 -259 -108 -554 -229 -296 -120
-646 -263 -778 -317 l-240 -98 -3 -157 -3 -157 38 16 c21 8 396 166 833 350
437 185 867 366 955 402 l160 67 3 130 3 130 -308 128 c-170 71 -380 160 -468
197 -88 36 -313 131 -500 209 -187 79 -414 174 -505 213 -91 38 -175 73 -187
78 l-23 9 0 -155z"/>
</g>
</svg>
